<?xml version="1.0" encoding="UTF-8"?>
<svg xmlns="http://www.w3.org/2000/svg" version="1.1" viewBox="0 0 1221.4 328.3">
  <!-- Generator: Adobe Illustrator 29.4.0, SVG Export Plug-In . SVG Version: 2.1.0 Build 152)  -->
  <defs>
    <style>
      .st0 {
        fill: #2d68b2;
      }
    </style>
  </defs>
  <g id="Laag_1">
    <g>
      <path class="st0" d="M335.5,71.2h62.3c43.9,0,76.5,15.3,76.5,61s-32.7,64.2-75.3,64.2h-28.4v72.8h-35.1V71.2ZM396.1,168.2c29.5,0,43.6-11.7,43.6-36.1s-15.4-32.9-44.8-32.9h-24.3v69h25.5Z"/>
      <path class="st0" d="M552.3,213.6v-93.2h34.9v88.7c0,24.5,7,33.7,23.1,33.7s21.7-6.1,32.9-20.6v-101.8h34.9v148.7h-28.6l-2.7-21.9h-1c-13.1,15.5-27.5,25.5-47.8,25.5-31.8,0-45.8-21.5-45.8-59.1Z"/>
      <path class="st0" d="M767.6,120.4h28.6l2.7,20.3h1c12.6-13.1,27-23.9,45.6-23.9s34.2,9.9,41,26.6c14.2-15.1,28.9-26.6,47.8-26.6,31.4,0,45.9,21.5,45.9,59.1v93.2h-34.9v-88.7c0-24.5-7.3-33.7-22.9-33.7s-19.6,6.1-31.1,18.5v103.9h-34.9v-88.7c0-24.5-7.3-33.7-22.9-33.7s-19.6,6.1-31.1,18.5v103.9h-34.9V120.4Z"/>
      <path class="st0" d="M1060.2,229.1c0-31.8,26.4-48.4,87.4-55-.5-16-6.9-29.3-27-29.3s-28.7,6.7-41.8,14.6l-12.8-23.2c16.3-10.3,37.4-19.5,61-19.5,37.2,0,55.4,22.9,55.4,64.3v88h-28.6l-2.7-16.5h-1c-13.3,11.4-28.6,20.1-46.1,20.1-26,0-43.9-17.7-43.9-43.6ZM1147.6,229.3v-33.4c-40.3,5.1-53.7,15.6-53.7,30.6s9,18.9,21.4,18.9,21.3-5.9,32.3-16.1Z"/>
    </g>
  </g>
  <g id="Laag_3">
    <g>
      <path class="st0" d="M219,244.8c4.8-4.2,25.8-23.4,33.6-38.8,8.1-16.1,3.9-52.3,3-59.1,9.1-12.8,11.7-21.7,10.5-34.7-.3-3.5,2.3-7.3,5.3-11.6,5.8-8.4,13.8-19.8,3.3-37.3-5.4-8.9-10.3-13.6-15.5-14.8-5.5-1.2-9.9,1.8-13.8,4.4-2,1.3-3.8,2.6-5.6,3.2-3.4,1.1-7.2,4.6-12.1,9-9.1,8.2-20.5,18.4-31.2,14.2-17.1-6.7-28.5-5.2-30.5-4.8h-6.2c-2-.4-13.4-1.9-30.5,4.8-10.7,4.2-22.1-6-31.2-14.2-4.8-4.4-8.7-7.8-12.1-9-1.8-.6-3.6-1.8-5.6-3.2-3.9-2.6-8.3-5.6-13.8-4.4-5.2,1.1-10.1,5.8-15.5,14.8-10.5,17.5-2.5,28.9,3.3,37.3,3,4.3,5.6,8.1,5.3,11.6-1.2,13,1.5,21.8,10.5,34.7-.9,6.7-5.1,43,3,59.1,7.7,15.4,28.6,34.4,33.5,38.8v1.7c.3,2.5.7,6.4,2.3,10.5,2.3,6.2,7.5,14.2,19.1,17.4.4,2.2,1.5,5.9,4.2,9.6,3.8,5.1,11.5,11.4,27,11.7h6.8s0,0,0,0c15.5-.4,23.2-6.6,27-11.7,2.7-3.7,3.8-7.4,4.2-9.6,11.6-3.2,16.8-11.2,19.1-17.4,1.5-4.1,2-8,2.1-10.5M189.3,280.8c-4.5,6.1-12.2,9.4-22.9,9.6h-6.7c-18.7-.5-24.2-10.1-25.8-15.2h.9c1.6.3,3.1.3,4.5.3,13,0,20.7-6.2,23.7-9.1,3,2.9,10.7,9.1,23.7,9.1s2.9,0,4.5-.2h.9c-.5,1.5-1.4,3.5-2.8,5.5ZM162.9,224.5h0s.1,0,.1,0h.1s0,0,0,0l2.3-.4c6.6-1,13.4-1.2,15.5-.3-.9,2.3-6,7.6-11.8,12-.5.3-4.2,3.2-6.1,8.6-1.9-5.4-5.6-8.3-6.1-8.6-5.8-4.4-11-9.7-11.8-12,2.1-.8,8.9-.7,15.5.3l2.3.4ZM159.2,263.5c-2.9,2.7-10.8,8.1-23.9,6.7l-2.6-.3h0c0,0-1.5-.3-1.5-.3-20.1-4.5-19-25-18.9-25.9v-1.5c.5-20.4,14.6-30.5,15.2-30.9l2.1-1.5-2.9-4.2-2.1,1.5c-.7.5-14.9,10.5-17.2,30.8-7.4-6.9-23.1-22.2-29.3-34.4-8-15.9-2.5-56.6-2.4-57v-1c.1,0-.5-.8-.5-.8-8.8-12.3-11.3-20.1-10.2-32,.5-5.4-2.8-10.1-6.2-15-5.9-8.4-11.9-17.1-3.1-31.7,4.5-7.4,8.6-11.6,12.2-12.4,3.3-.7,6.4,1.4,9.8,3.7,2.2,1.5,4.4,3,6.8,3.8,2.4.8,6.2,4.2,10.3,7.9,8,7.2,18.3,16.5,29.4,16.5,2.3,0,4.7-.4,7.1-1.4,16.9-6.7,27.8-4.5,27.9-4.5h.3c0,0,7,0,7,0h.3s.3,0,.3,0c.1,0,11-2.2,27.9,4.5,13.7,5.4,26.9-6.5,36.5-15.2,4-3.6,7.9-7.1,10.3-7.9,2.4-.8,4.7-2.3,6.8-3.8,3.3-2.3,6.4-4.4,9.8-3.7,3.6.8,7.7,5,12.2,12.4,8.8,14.6,2.7,23.3-3.1,31.7-3.4,5-6.7,9.6-6.2,15,1.1,12-1.4,19.8-10.2,32l-.6.8v1c.2.4,5.8,41.1-2.3,57-6.2,12.2-21.9,27.6-29.3,34.5-2.3-20.3-16.6-30.4-17.2-30.9l-2.1-1.5-2.9,4.2,2.1,1.5c.6.4,14.7,10.5,15.3,31v1.4c0,.9,1.2,21.3-18.9,25.9l-1.6.4h0c0,0-2.6.2-2.6.2-12.7,1.3-20.3-4-23.4-6.8l-.2-12.7c0-7,4.8-10.7,5-10.8h0c3.2-2.5,13.7-10.9,14-16.4,0-1.3-.4-2.5-1.4-3.3-3.6-3.3-15.3-1.9-20.1-1.1l-1.6.3-1.6-.3c-4.8-.8-16.4-2.2-20.1,1.1-1,.9-1.5,2.1-1.4,3.3.3,5.5,10.8,13.9,14,16.4h0c.2.2,5,3.8,5,10.9l.3,12.7"/>
      <path class="st0" d="M89.3,86.4l-1.6-2-4,3.3,1.6,2c3.7,4.5,8.1,12.1,7.1,14.7-1.3,3.3-8.6,7.6-12.9,9.5l-2.3,1.1,2.1,4.7,2.3-1.1c1.3-.6,13.1-6,15.6-12.3,2.6-6.5-6.1-17.7-7.9-19.9Z"/>
      <path class="st0" d="M134.2,150c-1-3,1.3-8.9,3.1-11.9l-2.2-1.3-2.2-1.3c-.6,1-5.6,10-3.4,16.2l4.9-1.7Z"/>
      <path class="st0" d="M128.8,157.9c-10.9-4.6-14.2-3.2-19.6-.2l-.6.3c-2.6,1.5-8.1-1.7-10.4-3.5l-3.2,4.1c.7.5,5.4,4.1,10.3,4.8.7,1.5,5.5,10.8,14.2,12.5.9.2,1.8.3,2.6.3,4,0,8.1-1.7,12.2-5.2,1.7,4,2.2,8.1,2.3,9.3l-4.1,15.7,5,1.3,4.2-16.1v-.8c0-.7-.9-17.3-12.9-22.4ZM120.5,170.8c-4.8-.9-8.2-5.6-9.7-8.2.1,0,.2,0,.3-.2l.6-.3c1.6-.9,2.9-1.6,4.3-1.9,0,.3,0,.6,0,.9,0,3,2.4,5.4,5.4,5.4s4.6-1.7,5.2-4c0,0,.2,0,.3.1,2,.8,3.6,2.2,4.9,3.8-4,3.6-7.7,5.1-11.2,4.4Z"/>
      <path class="st0" d="M233.6,104.4c-1.1-2.6,3.4-10.3,7.1-14.7l1.6-2-4-3.3-1.6,2c-1.8,2.2-10.5,13.4-7.9,19.9,2.5,6.2,14.3,11.7,15.6,12.3l2.3,1.1,2.1-4.7-2.3-1.1c-4.3-1.9-11.6-6.2-12.9-9.5Z"/>
      <path class="st0" d="M191.8,150l4.9,1.7c2.1-6.2-2.9-15.2-3.4-16.2l-4.5,2.6c1.7,3,4.1,8.9,3.1,11.9Z"/>
      <path class="st0" d="M217.5,158l-.6-.3c-5.4-3.1-8.7-4.4-19.6.2-12,5.1-13,21.7-13,22.4v.8c0,0,4.2,16.1,4.2,16.1l5-1.3-4.1-15.7c.1-1.2.6-5.3,2.3-9.3,4.1,3.5,8.2,5.2,12.2,5.2s1.8,0,2.6-.3c8.6-1.7,13.4-11,14.2-12.5,4.9-.7,9.6-4.3,10.3-4.8l-3.2-4.1c-2.2,1.7-7.8,4.9-10.4,3.5ZM205.6,170.8c-3.4.7-7.2-.8-11.2-4.4,1.3-1.6,2.9-2.9,4.9-3.8,0,0,.2,0,.3-.1.6,2.3,2.7,4,5.2,4s5.4-2.4,5.4-5.4,0-.6,0-.9c1.4.3,2.7,1,4.3,1.9l.6.3c.1,0,.2.1.3.2-1.5,2.5-4.9,7.3-9.7,8.2Z"/>
    </g>
  </g>
</svg>